<?xml version="1.0" encoding="UTF-8"?>
<svg id="_喇뒨쏛_2" data-name="喇뒨쏛 2" xmlns="http://www.w3.org/2000/svg" viewBox="0 0 36.4 27.65">
  <defs>
    <style>
      .cls-1 {
        fill: #26aad4;
      }
    </style>
  </defs>
  <g id="_喇뒨쏛_1-2" data-name="喇뒨쏛 1">
    <path class="cls-1" d="m33.97,0H2.43C1.09,0,0,1.09,0,2.43v22.79c0,1.34,1.09,2.43,2.43,2.43h31.54c1.34,0,2.43-1.09,2.43-2.43V2.43c0-1.34-1.09-2.43-2.43-2.43ZM2.21,5.03l14.5,10.87c.91.69,2.18.69,3.09,0l14.39-10.86v20.17c0,.12-.1.22-.22.22H2.43c-.12,0-.22-.1-.22-.22V5.03Zm16.25,9.11c-.12.1-.29.1-.42,0L2.26,2.3c.04-.05.1-.08.17-.09h31.54c.07,0,.13.03.17.09l-15.67,11.84Z"/>
  </g>
</svg>