<?xml version="1.0" encoding="UTF-8"?>
<svg id="_圖層_2" data-name="圖層 2" xmlns="http://www.w3.org/2000/svg" viewBox="0 0 88.02 88.02">
  <defs>
    <style>
      .cls-1 {
        fill: #fff;
      }

      .cls-2 {
        fill: none;
      }
    </style>
  </defs>
  <g id="_圖層_1-2" data-name="圖層 1">
    <g>
      <g id="Trusted_by_Prestigious_Companies" data-name="Trusted by Prestigious Companies">
        <path id="_路径_28" data-name="路径 28" class="cls-1" d="m1.67,31.78c.82-1.1,1.45-1.15,2.42-.19,1.91,1.91,3.82,3.81,5.73,5.73.87.87,1.24.86,2.12-.02.51-.5,1-1.02,1.52-1.52.44-.53,1.22-.61,1.75-.17.53.44.61,1.22.17,1.75-.05.06-.11.12-.17.17-.43.46-1.2.92-1.2,1.38,0,.61.83,1.01,1.3,1.5,1.17,1.2,2.36,2.39,3.57,3.57.43.4.66.96.63,1.55-.02.94,0,1.87,0,2.81,0,.53.11,1.04.36,1.51.57,1.07.82,1.13,1.71.39,1.81-1.56,4.54-1.35,6.1.46.27.31.49.66.66,1.03.21.45.36.59.9.43,2.27-.72,4.69.54,5.41,2.8.24.74.27,1.53.09,2.29-.11.54.02.68.47.87,1.32.5,2.28,1.65,2.54,3.03.11.53.35.66.87.7,2.41.14,4.25,2.21,4.11,4.62-.03.49-.14.96-.32,1.42-.23.38-.13.87.23,1.13.87.81,1.67,1.68,2.53,2.5.71.83,1.95.92,2.78.22.03-.03.07-.06.1-.09.76-.75.76-1.96.02-2.72-.05-.05-.11-.1-.16-.15-1.51-1.53-3.03-3.05-4.56-4.56-.5-.39-.66-1.07-.38-1.64.31-.6,1.06-.84,1.66-.53.17.09.31.21.42.36,1.51,1.49,3.01,3,4.5,4.5.32.38.76.65,1.24.77.81.17,1.63-.21,2.04-.92.47-.76.34-1.75-.33-2.35-1.24-1.29-2.53-2.54-3.79-3.81-.33-.33-.67-.65-.99-1-.51-.45-.56-1.23-.11-1.75,0,0,.02-.02.03-.03.44-.5,1.21-.54,1.7-.1.05.04.09.09.13.13,1.54,1.5,3.05,3.03,4.56,4.56.34.4.8.68,1.32.79.82.12,1.62-.28,2.01-1.01.41-.76.26-1.69-.37-2.28-1.44-1.48-2.92-2.93-4.38-4.39-.94-.94-1.08-1.64-.43-2.24.61-.57,1.27-.43,2.19.49,1.44,1.44,2.87,2.89,4.33,4.32.6.7,1.62.86,2.41.38.72-.41,1.09-1.23.92-2.04-.13-.51-.42-.96-.83-1.3-2.69-2.69-5.38-5.38-8.06-8.07-.25-.21-.46-.47-.63-.76-.26-.48-.14-1.08.29-1.43.38-.39.99-.45,1.45-.14.25.17.48.38.68.6,2.73,2.73,5.47,5.44,8.17,8.19.39.4.58.37.95,0,2.03-2.06,4.09-4.1,6.13-6.15.39-.54,1.13-.69,1.7-.34.58.35.77,1.1.42,1.69-.08.14-.19.25-.31.35-1.41,1.44-2.84,2.85-4.26,4.27-.58.58-1.16,1.17-1.76,1.75-.85.67-1.42,1.65-1.58,2.72-.3,1.84-1.83,3.23-3.7,3.36-.49.07-.61.2-.66.68-.23,2.02-1.84,3.61-3.86,3.81-.46.05-.56.21-.62.63-.2,2.06-1.85,3.68-3.91,3.86-.42.06-.53.23-.59.61-.15,1.76-1.37,3.24-3.07,3.72-1.7.56-3.57.02-4.72-1.36-.78-.82-1.61-1.59-2.39-2.41-.3-.31-.49-.32-.79,0-.6.64-1.24,1.26-1.86,1.88-1.15,1.26-2.95,1.71-4.55,1.12-1.63-.5-2.81-1.92-3-3.62-.07-.47-.2-.61-.67-.69-1.97-.22-3.52-1.76-3.75-3.73-.07-.43-.16-.63-.67-.69-1.96-.22-3.51-1.77-3.74-3.73-.06-.45-.19-.65-.69-.71-2.37-.3-4.05-2.48-3.75-4.85.11-.89.5-1.71,1.1-2.37.41-.45.49-.69.02-1.16-1.07-1-1.61-2.44-1.46-3.9.28-1.76-.47-3.52-1.93-4.55-1.02-.89-1.98-1.84-2.88-2.85-.3-.36-.77-.53-1.23-.45-.92.1-1.84-.23-2.49-.89-2.18-2.15-4.33-4.32-6.49-6.48-.13-.13-.24-.29-.36-.43v-.82Zm24.43,30.76c.45.03.89-.13,1.22-.44,1.55-1.52,3.1-3.04,4.6-4.62.64-.71.61-1.8-.08-2.47-.63-.73-1.73-.81-2.46-.19-1.62,1.53-3.19,3.11-4.73,4.72-.48.54-.55,1.32-.19,1.94.29.64.94,1.05,1.64,1.05m12.18,1.77c-.45-.02-.88.14-1.21.45-1.17,1.16-2.36,2.3-3.49,3.5-.69.8-.61,2.01.19,2.7.71.62,1.76.63,2.48.02,1.22-1.14,2.4-2.34,3.55-3.55.51-.54.61-1.35.24-2-.3-.7-1.01-1.15-1.77-1.12m-4.62-4.07c-.45-.05-.91.09-1.26.39-1.13,1.09-2.26,2.18-3.32,3.34-.63.8-.49,1.96.31,2.59.66.52,1.59.53,2.26.02,1.16-1.05,2.26-2.18,3.33-3.32.49-.53.57-1.31.21-1.94-.29-.6-.87-1.01-1.54-1.07m-11.85-2.14c.34.02.68-.09.94-.31,1.15-.98,2.22-2.05,3.19-3.21.58-.84.36-1.99-.48-2.57-.67-.46-1.56-.43-2.2.08-1.05.96-2.06,1.98-3.03,3.02-.5.55-.57,1.37-.17,2,.33.65,1.02,1.04,1.75.98"/>
        <path id="_路径_29" data-name="路径 29" class="cls-1" d="m30.17,21.26c-.01.12-.05.36-.06.61-.03.4-.53.79-.22,1.14.44.64,1.02,1.16,1.7,1.53.82.33,1.64.65,2.47.94,1.44.48,2.74,1.32,3.78,2.44.36.41.9.63,1.45.59,3.53-.02,7.05,0,10.58-.02.97-.02,1.92.22,2.76.71,1.07.63,2.17,1.19,3.24,1.82.27.25.7.23.94-.05.02-.02.03-.03.04-.05,1.19-1.22,2.42-2.41,3.65-3.6.27-.19.33-.57.14-.84,0,0,0,0,0,0-.56-1.04-.32-2.32.56-3.1,3.17-3.18,6.34-6.36,9.53-9.53.42-.57,1.21-.69,1.78-.27.04.03.08.06.12.1.5.52.48,1.35-.04,1.84-.04.04-.09.08-.14.12-3.03,3.04-6.07,6.09-9.13,9.11-.48.48-.43.72.03,1.15,5.21,4.95,10.41,9.92,15.6,14.91.43.42.67.36,1.05-.04,1.34-1.38,2.72-2.73,4.08-4.1.39-.5,1.08-.65,1.64-.35.58.28.82.98.54,1.56-.06.13-.14.24-.24.33-1.61,1.66-3.24,3.31-4.93,4.89-.74.69-1.83.82-2.71.32-.32-.21-.74-.13-.96.18,0,0,0,.01-.01.02-.45.49-.92.95-1.4,1.41-.44.55-1.23.65-1.79.21-.04-.03-.08-.06-.11-.1-.48-.5-.45-1.3.05-1.77.02-.02.05-.04.07-.06.46-.48.92-.95,1.41-1.4.33-.3.38-.5.02-.85-4.2-3.99-8.38-7.98-12.55-11.99-.4-.39-.6-.26-.92.06-1.32,1.33-2.67,2.63-4.01,3.94-1.08,1.06-1.66,1.13-3,.38-1.27-.71-2.55-1.41-3.82-2.13-.43-.25-.92-.37-1.42-.36-3.86,0-7.72,0-11.57,0-.53-.02-1.03.2-1.39.59-1.39,1.42-2.81,2.81-4.2,4.21-1.18,1.19-1.28,2.6-.27,3.67.96,1.03,2.36,1.03,3.63,0,1.13-.92,2.27-1.84,3.38-2.78.37-.33.85-.51,1.35-.5,1.82.01,3.64,0,5.46,0,1.2,0,1.62.44,1.48,1.61-.03.27.09.54.31.7.84.84,1.68,1.67,2.51,2.52.56.41.68,1.18.27,1.74-.04.05-.08.11-.13.15-.51.49-1.32.47-1.81-.04-.03-.03-.06-.07-.09-.11-1.22-1.2-2.43-2.4-3.62-3.63-.31-.3-.73-.47-1.16-.49-1.98-.37-4.01.34-5.32,1.86-.41.41-.86.78-1.33,1.11-2.04,1.66-5.03,1.43-6.8-.52-1.77-1.91-1.73-4.88.09-6.75,1.46-1.54,2.97-3.03,4.5-4.5.49-.47.4-.7-.09-1.05-1.07-.68-2.23-1.2-3.46-1.54-1.2-.34-2.26-1.03-3.06-1.99-.43-.57-.73-.39-1.15.04-2.63,2.67-5.29,5.31-7.94,7.96-.2.23-.43.43-.67.61-.58.35-1.33.17-1.69-.4-.24-.39-.24-.89,0-1.29.16-.22.34-.43.55-.61,3.12-3.12,6.23-6.24,9.35-9.36.9-.9.9-1.27-.02-2.19-1.44-1.44-2.88-2.89-4.32-4.33-.72-.72-.79-1.47-.21-2.01.55-.52,1.26-.44,1.96.26,1.56,1.55,3.12,3.12,4.68,4.67.71.69,1.1,1.65,1.05,2.65"/>
      </g>
      <rect class="cls-2" width="88.02" height="88.02"/>
    </g>
  </g>
</svg>