<?xml version="1.0" encoding="UTF-8"?>
<svg id="_圖層_2" data-name="圖層 2" xmlns="http://www.w3.org/2000/svg" viewBox="0 0 88.02 88.02">
  <defs>
    <style>
      .cls-1 {
        fill: #fff;
      }

      .cls-2 {
        fill: none;
      }
    </style>
  </defs>
  <g id="_圖層_1-2" data-name="圖層 1">
    <g>
      <g id="Global_Reach" data-name="Global Reach">
        <path id="_路径_16" data-name="路径 16" class="cls-1" d="m77.13,42.06v4.01c-.18,0-.12.14-.13.23-.04.5-.01.99-.1,1.5-.11.6-.21,1.22-.27,1.83-.07.59-.17,1.18-.31,1.76-.19.94-.45,1.87-.78,2.77-.24.65-.46,1.31-.72,1.96-.33.81-.67,1.62-1.05,2.41-.33.68-.69,1.35-1.04,2.02-.13.27-.29.53-.46.77-.56.73-1.02,1.53-1.58,2.27-.6.79-1.23,1.56-1.85,2.33-.46.44-.89.91-1.28,1.41-.06.12-.16.21-.27.27-.27.16-.52.36-.72.6-.36.32-.7.66-1.07.98-.64.53-1.29,1.04-1.95,1.55-.83.62-1.69,1.2-2.58,1.73-.4.24-.85.4-1.21.66-.84.62-1.87.83-2.72,1.4-.48.13-.95.3-1.4.52-.47.16-.94.35-1.42.48-.68.18-1.34.42-2.03.57-.41.09-.84.17-1.24.28-.57.16-1.16.19-1.73.34-.55.15-1.14.1-1.7.25-.32.04-.64.04-.97.02-.33.02-.66.13-.98.12-1.26.06-2.51.03-3.76-.11-.51-.1-1.04,0-1.57-.11-.6-.11-1.22-.14-1.83-.28-.35-.03-.7-.08-1.04-.15-.27-.1-.54-.05-.78-.13-.86-.28-1.76-.42-2.6-.76-.67-.27-1.35-.47-2.03-.72-.96-.36-1.85-.83-2.79-1.22-.39-.16-.72-.44-1.1-.62-.64-.33-1.27-.7-1.87-1.1-.51-.32-1.01-.65-1.51-.98-.7.52-1.53.86-2.4.97-.86.14-1.75.05-2.56-.26-.84-.28-1.59-.77-2.19-1.42-.27-.31-.51-.64-.73-.99-.11-.17-.2-.35-.28-.53-.21-.48-.24-1.01-.43-1.5-.04-.09,0-.21,0-.32-.02-.54.02-1.09.14-1.62.06-.29.16-.58.27-.86.16-.36.36-.71.6-1.03-.44-.71-.9-1.43-1.34-2.15-.46-.76-.92-1.51-1.34-2.29-.26-.47-.44-.98-.66-1.47-.08-.16-.19-.31-.25-.48-.33-.92-.68-1.83-1-2.76s-.54-1.89-.81-2.83c-.1-.33-.01-.74-.16-1.03-.18-.35.03-.76-.24-1.07-.05-.62-.13-1.23-.25-1.84-.05-.28-.05-.56,0-.84.05-.31-.15-.56-.14-.85,0-.67-.02-1.34,0-2-.04-.68,0-1.35.11-2.02.12-.42-.01-.9.09-1.33s.03-.85.16-1.29c.18-.58.16-1.22.3-1.82.02-.24.06-.48.13-.72.19-.41.19-.86.36-1.27s.25-.84.38-1.26c.41-1.38.94-2.72,1.56-4.01.17-.43.36-.84.57-1.25.48-.75.85-1.55,1.35-2.29.27-.49.61-.95.99-1.36,1.18-.3,1.2-.11,1.88.58,0,.04,0,.09,0,.13q.17.65-.25,1.28c-.1.15-.19.31-.27.47-.33.65-.7,1.27-1.08,1.87-.51.83-.82,1.73-1.3,2.62h12.74c.22-.71.55-1.37.99-1.97.47-.62,1.07-1.14,1.77-1.5.67-.31,1.39-.54,2.12-.67.16-.46.26-.94.28-1.43.24-.19.08-.47.16-.71.14-.42.26-.84.35-1.28.18-.89.46-1.75.72-2.62.42-1.41.94-2.8,1.56-4.14.44-1.06,1.01-2.06,1.68-2.99.17-.23.3-.49.5-.84-.61.12-1.11.22-1.61.33-.59.13-1.19.23-1.77.42-1.43.45-2.82.98-4.19,1.6-.91.42-1.8.88-2.66,1.38-.24.14-.49.28-.73.44-.61.41-1.21.81-1.85,1.24l-.89-.16-.56-.56c-.07-.2-.12-.41-.14-.63.03-.21.08-.41.15-.6.2-.24.43-.46.68-.66.65-.44,1.33-.84,2.01-1.24.69-.41,1.39-.8,2.09-1.19.3-.16.62-.28.93-.41.7-.35,1.42-.65,2.15-.92,1.53-.56,3.1-1.01,4.69-1.33.35-.05.71-.19,1.06-.22.37-.03.72-.24,1.11-.15.06.01.15.03.19,0,.24-.24.55-.03.79-.13.25-.09.52-.13.79-.12.28,0,.56,0,.84,0,.04,0,.07-.08.1-.12h4.14c0,.18.14.12.23.13.5.04.99.01,1.5.1.6.11,1.22.15,1.83.28.34.08.71.04,1.04.15.25.08.5.05.72.12.92.29,1.88.44,2.77.79.65.26,1.31.48,1.96.72.9.34,1.75.78,2.63,1.15.42.18.8.46,1.21.67.64.33,1.27.7,1.87,1.1.51.32,1.01.65,1.51.97,1-.73,2.23-1.09,3.47-1.01,1.22.07,2.39.55,3.31,1.35.62.52,1.09,1.19,1.39,1.94.36.82.51,1.71.41,2.6-.09.96-.43,1.88-1,2.67.03.11.08.22.14.32.64.87,1.23,1.77,1.76,2.7.43.74.82,1.51,1.16,2.29.49.98.9,2,1.24,3.04.25.8.53,1.59.76,2.4.23.84.36,1.69.6,2.52.08.25.02.52.12.79.06.26.11.52.13.78.09.58.14,1.17.15,1.75.01.24,0,.47,0,.71,0,.04.08.07.12.1m-21.62-7.37c.09.61,0,1.17.13,1.75.13.56.05,1.16.13,1.75.13.92.02,1.85.12,2.79.08,1.12.09,2.24.02,3.36.05,1.1.02,2.21-.11,3.31-.06.59-.06,1.19-.02,1.79,1.73.63,3.05,2.07,3.51,3.86h13.77c.06-.13.11-.27.14-.41.05-.39.25-.72.31-1.11.13-.41.21-.83.24-1.25.21-.48.33-1,.37-1.53.16-.59.15-1.22.26-1.83.09-.53.05-1.08.12-1.63.1-.81,0-1.64.03-2.45s-.23-1.59-.14-2.4c0-.04.01-.1,0-.12-.22-.19-.08-.44-.12-.66s-.1-.44-.13-.66c-.01-.37-.06-.74-.15-1.1-.12-.35-.14-.71-.24-1.06s-.17-.71-.26-1.05c-.13-.46-.28-.91-.41-1.33h-17.6Zm-40.56,0c-.08.25-.18.52-.24.79-.2.78-.43,1.55-.57,2.35,0,.31-.05.61-.14.9-.19.34.06.73-.23,1,0,.35-.04.7-.12,1.05-.05.52-.06,1.04-.12,1.56-.06.82-.07,1.64-.02,2.45.02.82.08,1.65.12,2.47,0,.04-.02.11,0,.13.19.17.1.39.13.6.03.22.1.44.12.66.02.39.06.78.15,1.17.11.35.14.71.24,1.06.1.37.21.74.28,1.12.11.44.24.86.4,1.28h17.57c0-.55-.04-1.1-.11-1.64-.12-.61,0-1.25-.14-1.88-.04-.41-.05-.82-.02-1.22.01-.42-.02-.84-.11-1.24-.06-.41-.06-.82-.02-1.22,0-.77-.02-1.55,0-2.33-.05-1.13-.01-2.25.11-3.38.06-.59.06-1.18.02-1.76-1.75-.95-2.35-.89-3.66-3.91h-13.64Zm37.83,0h-13.55c-.52,2.1-2.23,3.68-4.36,4.04-.07.76-.03,1.54-.11,2.32-.08,1.07-.09,2.15-.02,3.23-.04,1.06,0,2.13.1,3.18.15.89-.1,1.82.15,2.72-.1.98.21,1.94.13,2.91l.18.18h13.5c.27-1.05.84-1.99,1.65-2.71.79-.69,1.75-1.17,2.77-1.39.05-.79.04-1.53.11-2.26.08-1.07.09-2.15.02-3.23.04-1.06,0-2.13-.1-3.18-.15-.89.11-1.82-.15-2.72.1-.98-.21-1.94-.13-2.9l-.17-.17m-.25-2.63l.13-.08c-.42-.4-.1-.92-.34-1.37-.1-.2-.02-.47-.13-.72-.1-.23.05-.54-.15-.78,0-.51-.09-1.02-.26-1.51-.11-.37-.11-.76-.25-1.13-.12-.37-.2-.74-.25-1.12-.2-1.05-.55-2.06-.85-3.08-.32-1.07-.71-2.11-1.18-3.13-.59-1.4-1.37-2.71-2.3-3.91-.61-.79-1.45-1.39-2.4-1.72-.34-.11-.7-.11-1.04-.01-.75.21-1.43.63-1.96,1.19-.39.43-.76.88-1.1,1.35-.46.61-.72,1.35-1.19,1.96-.17.6-.41,1.17-.71,1.71-.33.92-.7,1.82-.99,2.76-.19.61-.36,1.23-.52,1.85-.15.41-.28.83-.37,1.26-.07.7-.33,1.34-.42,2.03-.03.26-.18.5-.11.7.5.34.97.62,1.41.95.42.38.78.82,1.06,1.3.24.48.46.97.64,1.47h13.27Zm-.59,27.52c-1.57-.68-2.74-2.04-3.17-3.69h-13.28c.05.28.1.54.13.79,0,.39.06.78.15,1.17.08.23.05.45.12.66.07.24.11.48.13.72.02.28.08.57.15.84.14.46.24.94.34,1.41.15.73.33,1.46.54,2.17.21.75.42,1.51.65,2.25.1.32.3.62.37.94.19.67.43,1.33.75,1.95.59,1.4,1.37,2.71,2.3,3.91.61.8,1.45,1.39,2.4,1.7.32.1.66.12.99.04.83-.25,1.57-.72,2.15-1.36.12-.13.2-.32.33-.44.51-.53.94-1.14,1.26-1.81.49-.87.92-1.77,1.3-2.69.33-.88.68-1.74.96-2.64.19-.61.34-1.24.52-1.85.18-.54.31-1.09.4-1.65.06-.46.21-.9.31-1.35.08-.36.15-.72.21-1.07m2.63.44c-.08.16-.14.33-.19.5-.15.82-.32,1.63-.51,2.44-.14.59-.25,1.2-.43,1.77-.29.95-.55,1.93-.9,2.86-.29.76-.61,1.52-.93,2.26-.45,1.07-.99,2.1-1.62,3.08-.22.33-.43.67-.66,1.04.23,0,.5.08.59-.02.23-.23.53,0,.77-.19.19-.14.51-.1.76-.17.56-.15,1.11-.34,1.67-.48.61-.18,1.22-.39,1.8-.64.4-.12.79-.26,1.17-.44.71-.42,1.49-.67,2.2-1.1.63-.38,1.31-.7,1.93-1.1,1.54-.97,2.98-2.06,4.33-3.28.84-.76,1.63-1.57,2.36-2.43.62-.73,1.21-1.49,1.81-2.24.29-.34.55-.71.77-1.1.25-.49.58-.91.85-1.39.4-.7.77-1.41,1.16-2.11.2-.36.33-.77.52-1.14.03-.07.06-.14.1-.24h-12.81c-.32,1.08-.92,2.04-1.75,2.8-.86.71-1.9,1.17-3,1.33m14.37-33.67c-1.14.58-2.46.72-3.7.41-.92-.19-1.76-.65-2.42-1.31-1.73-1.63-2.21-4.2-1.18-6.35-.08-.09-.16-.18-.26-.25-.99-.7-2.04-1.3-3.1-1.89-.61-.33-1.25-.63-1.89-.9-.71-.31-1.43-.62-2.16-.86-.65-.21-1.28-.45-1.95-.61-.59-.1-1.18-.26-1.73-.49-.41.1-.8-.28-1.21-.08.1.14.19.28.27.41.43.68.9,1.35,1.27,2.06.37.69.69,1.39.98,2.11.18.49.43.95.58,1.44.4,1.34.91,2.65,1.19,4.04.11.54.28,1.09.41,1.64s.26,1.11.37,1.66c0,.31.06.61.15.9.06.16.08.32.08.48.03.15.1.31.12.46.02.39.07.78.15,1.17.16.54.13,1.1.29,1.65h16.92c-.83-2.02-1.9-3.94-3.18-5.71m-30.16,47.65c-.15-.23-.25-.36-.34-.5-.35-.56-.72-1.12-1.05-1.7-.72-1.33-1.33-2.72-1.83-4.15-.25-.67-.5-1.35-.69-2.04-.17-.6-.35-1.2-.46-1.82-.11-.59-.37-1.15-.45-1.74-.2-.75-.34-1.52-.4-2.29-.16-.56-.29-1.14-.38-1.72-.08-.34-.13-.69-.14-1.04-.05-.37-.11-.73-.16-1.09H15.91c.84,2.01,1.91,3.92,3.19,5.68,2.05-.98,4.48-.61,6.14.93.55.5.98,1.12,1.26,1.81.26.6.41,1.24.44,1.89.02.91-.17,1.82-.53,2.66.5.42,1.03.78,1.59,1.1.55.34,1.1.67,1.66.98.56.3,1.14.58,1.72.83.57.23,1.14.48,1.71.7.6.23,1.21.41,1.81.63s1.24.34,1.86.5c.65.19,1.31.32,1.98.39m-1.99-40.62c0-1.58-1.29-2.85-2.86-2.84-1.53,0-2.79,1.23-2.84,2.76.05,1.56,1.27,2.82,2.82,2.94,1.56-.05,2.82-1.3,2.89-2.86m-15.29,35.95c1.54-.05,2.79-1.25,2.9-2.78-.05-1.56-1.28-2.82-2.84-2.92-1.56,0-2.85,1.23-2.89,2.8.02,1.57,1.26,2.85,2.83,2.91m44.99-45.01c1.54-.04,2.79-1.23,2.91-2.77-.06-1.55-1.27-2.82-2.82-2.94-1.54.05-2.79,1.25-2.91,2.78.02,1.56,1.25,2.84,2.82,2.92m-9.66,30.25c.07-.76-.23-1.51-.81-2.01-.52-.52-1.24-.82-1.98-.82-1.57-.01-2.86,1.25-2.87,2.82-.01,1.57,1.25,2.86,2.82,2.87.03,0,.06,0,.09,0,1.53,0,2.77-1.26,2.76-2.79,0-.02,0-.05,0-.07"/>
      </g>
      <rect class="cls-2" width="88.02" height="88.02"/>
    </g>
  </g>
</svg>